<svg xmlns="http://www.w3.org/2000/svg" height="215" width="215"><defs><clipPath id="Q" clipPathUnits="userSpaceOnUse"><rect rx="3" height="215" width="215" fill="#046c00" stroke="#fff" stroke-width="2.84" stroke-opacity=".2"/></clipPath><clipPath id="P" clipPathUnits="userSpaceOnUse"><rect rx="3" height="215" width="215" fill="#046c00" stroke="#fff" stroke-width="2.84" stroke-opacity=".2"/></clipPath><clipPath id="O" clipPathUnits="userSpaceOnUse"><rect rx="3" height="215" width="215" fill="#046c00" stroke="#fff" stroke-width="2.84" stroke-opacity=".2"/></clipPath><clipPath id="N" clipPathUnits="userSpaceOnUse"><rect rx="3" height="215" width="215" fill="#046c00" stroke="#fff" stroke-width="2.84" stroke-opacity=".2"/></clipPath><clipPath id="M" clipPathUnits="userSpaceOnUse"><rect rx="3" height="215" width="215" fill="#046c00" stroke="#fff" stroke-width="2.84" stroke-opacity=".2"/></clipPath><clipPath id="L" clipPathUnits="userSpaceOnUse"><rect rx="3" height="215" width="215" fill="#046c00" stroke="#fff" stroke-width="2.84" stroke-opacity=".2"/></clipPath><clipPath id="K" clipPathUnits="userSpaceOnUse"><rect transform="scale(-1 1)" rx="3" height="215" width="215" fill="#046c00" stroke="#fff" stroke-width="2.84" stroke-opacity=".2"/></clipPath><clipPath id="J" clipPathUnits="userSpaceOnUse"><rect rx="3" height="215" width="215" fill="#046c00" stroke="#fff" stroke-width="2.84" stroke-opacity=".2"/></clipPath><clipPath id="I" clipPathUnits="userSpaceOnUse"><rect rx="3" height="215" width="215" fill="#046c00" stroke="#fff" stroke-width="2.84" stroke-opacity=".2"/></clipPath><clipPath id="H" clipPathUnits="userSpaceOnUse"><rect rx="3" height="215" width="215" fill="#046c00" stroke="#fff" stroke-width="2.84" stroke-opacity=".2"/></clipPath><clipPath id="G" clipPathUnits="userSpaceOnUse"><rect transform="scale(-1 1)" rx="3" height="215" width="215" fill="#046c00" stroke="#fff" stroke-width="2.84" stroke-opacity=".2"/></clipPath><clipPath id="F" clipPathUnits="userSpaceOnUse"><rect rx="3" height="215" width="215" fill="#046c00" stroke="#fff" stroke-width="2.84" stroke-opacity=".2"/></clipPath><clipPath id="E" clipPathUnits="userSpaceOnUse"><rect rx="3" height="215" width="215" fill="#046c00" stroke="#fff" stroke-width="2.84" stroke-opacity=".2"/></clipPath><clipPath id="D" clipPathUnits="userSpaceOnUse"><rect rx="3" height="215" width="215" fill="#046c00" stroke="#fff" stroke-width="2.84" stroke-opacity=".2"/></clipPath><clipPath id="C" clipPathUnits="userSpaceOnUse"><rect transform="scale(-1 1)" rx="3" height="215" width="215" fill="#046c00" stroke="#fff" stroke-width="2.84" stroke-opacity=".2"/></clipPath><clipPath id="B" clipPathUnits="userSpaceOnUse"><rect rx="3" height="215" width="215" fill="#046c00" stroke="#fff" stroke-width="2.84" stroke-opacity=".2"/></clipPath><clipPath id="A" clipPathUnits="userSpaceOnUse"><rect transform="scale(-1 1)" rx="3" height="215" width="215" fill="#046c00" stroke="#fff" stroke-width="2.84" stroke-opacity=".2"/></clipPath><clipPath id="z" clipPathUnits="userSpaceOnUse"><rect transform="scale(-1 1)" rx="3" height="215" width="215" fill="#046c00" stroke="#fff" stroke-width="2.84" stroke-opacity=".2"/></clipPath><clipPath id="y" clipPathUnits="userSpaceOnUse"><rect transform="scale(-1 1)" rx="3" height="215" width="215" fill="#046c00" stroke="#fff" stroke-width="2.84" stroke-opacity=".2"/></clipPath><clipPath id="x" clipPathUnits="userSpaceOnUse"><rect rx="3" height="215" width="215" fill="#046c00" stroke="#fff" stroke-width="2.84" stroke-opacity=".2"/></clipPath><clipPath id="w" clipPathUnits="userSpaceOnUse"><rect rx="3" height="215" width="215" fill="#046c00" stroke="#fff" stroke-width="2.84" stroke-opacity=".2"/></clipPath><clipPath id="v" clipPathUnits="userSpaceOnUse"><rect rx="3" height="215" width="215" fill="#046c00" stroke="#fff" stroke-width="2.84" stroke-opacity=".2"/></clipPath><clipPath id="u" clipPathUnits="userSpaceOnUse"><rect rx="3" height="215" width="215" fill="#046c00" stroke="#fff" stroke-width="2.84" stroke-opacity=".2"/></clipPath><clipPath id="t" clipPathUnits="userSpaceOnUse"><rect rx="3" height="215" width="215" fill="#046c00" stroke="#fff" stroke-width="2.84" stroke-opacity=".2"/></clipPath><clipPath id="s" clipPathUnits="userSpaceOnUse"><rect rx="3" height="215" width="215" fill="#046c00" stroke="#fff" stroke-width="2.84" stroke-opacity=".2"/></clipPath><clipPath id="r" clipPathUnits="userSpaceOnUse"><rect rx="3" height="215" width="215" fill="#046c00" stroke="#fff" stroke-width="2.84" stroke-opacity=".2"/></clipPath><clipPath id="q" clipPathUnits="userSpaceOnUse"><rect rx="3" height="215" width="215" fill="#046c00" stroke="#fff" stroke-width="2.84" stroke-opacity=".2"/></clipPath><clipPath id="p" clipPathUnits="userSpaceOnUse"><rect rx="3" height="215" width="215" fill="#046c00" stroke="#fff" stroke-width="2.84" stroke-opacity=".2"/></clipPath><clipPath id="o" clipPathUnits="userSpaceOnUse"><rect rx="3" height="215" width="215" fill="#046c00" stroke="#fff" stroke-width="2.84" stroke-opacity=".2"/></clipPath><clipPath id="n" clipPathUnits="userSpaceOnUse"><rect rx="3" height="215" width="215" fill="#046c00" stroke="#fff" stroke-width="2.84" stroke-opacity=".2"/></clipPath><clipPath id="m" clipPathUnits="userSpaceOnUse"><rect rx="3" height="215" width="215" fill="#046c00" stroke="#fff" stroke-width="2.84" stroke-opacity=".2"/></clipPath><clipPath id="l" clipPathUnits="userSpaceOnUse"><rect transform="scale(-1 1)" rx="3" height="215" width="215" fill="#046c00" stroke="#fff" stroke-width="2.84" stroke-opacity=".2"/></clipPath><clipPath id="k" clipPathUnits="userSpaceOnUse"><rect rx="3" height="215" width="215" fill="#046c00" stroke="#fff" stroke-width="2.84" stroke-opacity=".2"/></clipPath><clipPath id="j" clipPathUnits="userSpaceOnUse"><rect rx="3" height="215" width="215" fill="#046c00" stroke="#fff" stroke-width="2.84" stroke-opacity=".2"/></clipPath><clipPath id="i" clipPathUnits="userSpaceOnUse"><rect transform="scale(-1 1)" rx="3" height="215" width="215" fill="#046c00" stroke="#fff" stroke-width="2.84" stroke-opacity=".2"/></clipPath><clipPath id="h" clipPathUnits="userSpaceOnUse"><rect transform="scale(-1 1)" rx="3" height="215" width="215" fill="#046c00" stroke="#fff" stroke-width="2.84" stroke-opacity=".2"/></clipPath><clipPath id="g" clipPathUnits="userSpaceOnUse"><rect rx="3" height="215" width="215" fill="#046c00" stroke="#fff" stroke-width="2.84" stroke-opacity=".2"/></clipPath><clipPath id="f" clipPathUnits="userSpaceOnUse"><rect transform="scale(-1 1)" rx="3" height="215" width="215" fill="#046c00" stroke="#fff" stroke-width="2.84" stroke-opacity=".2"/></clipPath><clipPath id="e" clipPathUnits="userSpaceOnUse"><rect rx="3" height="215" width="215" fill="#046c00" stroke="#fff" stroke-width="2.84" stroke-opacity=".2"/></clipPath><clipPath id="d" clipPathUnits="userSpaceOnUse"><rect rx="3" height="215" width="215" fill="#046c00" stroke="#fff" stroke-width="2.84" stroke-opacity=".2"/></clipPath><clipPath id="c" clipPathUnits="userSpaceOnUse"><rect rx="3" height="215" width="215" fill="#046c00" stroke="#fff" stroke-width="2.84" stroke-opacity=".2"/></clipPath><clipPath id="b" clipPathUnits="userSpaceOnUse"><rect rx="3" height="215" width="215" fill="#046c00" stroke="#fff" stroke-width="2.84" stroke-opacity=".2"/></clipPath><clipPath id="a" clipPathUnits="userSpaceOnUse"><rect rx="3" height="215" width="215" fill="#046c00" stroke="#fff" stroke-width="2.84" stroke-opacity=".2"/></clipPath></defs><path clip-path="url(#a)" d="m 161.25525,214.99912 c -9.19934,-15.85675 -21.12721,-38.93823 -26.0917,-47.33262 -4.96448,-8.39438 -6.34914,-10.16317 -7.95292,-11.43409 -1.60377,-1.27092 -3.75423,-2.46239 -6.85711,-6.84094 -3.10288,-4.37854 -7.15775,-11.94361 -5.43327,-17.1839 1.72446,-5.24029 8.73722,-7.9649 8.49565,-15.53487 -0.24157,-7.56997 -7.67786,-18.126413 -9.03889,-23.629643 -1.36102,-5.503242 3.93786,-5.210982 6.57107,-4.854052 2.63319,0.35692 2.63319,0.7806 3.5256,0.508 0.89239,-0.27259 2.67474,-1.24037 4.26225,-3.32817 1.5875,-2.087807 2.97974,-5.29602 2.08811,-8.775707 -0.89164,-3.479686 -4.06735,-7.232388 -7.24277,-10.98475 2.78212,-0.584258 5.56453,-1.168585 8.65218,0.276558 3.08765,1.445142 6.48187,4.920374 9.16984,9.548439 2.68797,4.628075 5.16075,11.84064 6.02491,18.254742 0.86416,6.414093 0.37871,12.570743 1.57763,20.072383 1.1989,7.50163 4.0786,16.22889 8.99308,24.96374 4.91447,8.73484 11.79397,17.35303 20.81545,28.82797 9.02149,11.47494 24.88894,33.00055 36.02788,47.30147 z" fill="#ac8049"/><path clip-path="url(#b)" d="m 108.77772,54.895996 c 7.14173,2.057789 14.28333,4.115538 18.51976,6.052174 4.23642,1.936635 5.56794,3.752343 9.36445,7.718783 6.23531,7.761051 10.78611,19.032152 12.12963,25.104214 1.50921,6.828803 -1.23701,19.794153 -0.77424,29.193513 0.46278,9.39937 1.67319,15.33038 10.44916,28.82721 8.77596,13.49683 25.11635,34.55777 41.45731,55.61944" fill="none" stroke="#ac8049" stroke-width="12.13" stroke-linecap="round" stroke-linejoin="bevel"/><path clip-path="url(#c)" d="m 103.89903,65.423686 c 6.56077,4.734692 13.12154,9.469374 18.59919,12.903933 5.47764,3.434559 9.87197,5.568916 12.63214,7.768816 2.76017,2.1999 3.88603,4.46525 5.74921,7.651422 1.86318,3.18617 4.46324,7.292433 5.65131,12.894023 1.18806,5.6016 0.96344,12.69573 1.45633,19.20894 0.49289,6.51323 1.70324,12.44391 2.56836,15.74466 0.86512,3.30074 1.38481,3.97056 9.5555,14.50166 8.17069,10.53111 23.99143,30.9223 39.81272,51.31419" fill="none" stroke="#ac8049" stroke-width="13.3" stroke-linecap="round" stroke-linejoin="bevel"/><path clip-path="url(#d)" d="m 166.81414,211.64437 c -9.28666,-16.26236 -18.57328,-32.52465 -27.85986,-48.78685 m -4.7503,-6.16255 c -3.25246,-3.59482 -6.50492,-7.18965 -11.084,-10.01413 -4.57907,-2.82449 -10.48478,-4.87865 -16.39071,-6.93288" fill="none" stroke="#7e5b2f" stroke-width="4.85" stroke-linecap="round"/><path clip-path="url(#e)" d="m 114.02186,55.546195 c 5.38987,1.804317 10.64953,3.56505 14.37996,5.487814 3.73043,1.922764 5.09954,4.366143 6.93686,6.286384 m 4.26897,5.478565 c 2.9195,4.370738 4.1087,5.994538 5.50101,9.323598 1.43666,3.435099 1.9683,6.495829 2.86307,10.797141 m 0.91387,8.730283 c -0.54761,6.76232 -1.09517,13.52411 -0.59894,19.51083 0.49624,5.98671 2.03624,11.19685 3.57645,16.40776 m 4.11215,8.75765 c 3.97012,5.33478 7.94015,10.66945 15.98323,21.37516 8.04308,10.70571 20.15874,26.78184 32.2746,42.85824" fill="none" stroke="#cb9553" stroke-width="4.85" stroke-linecap="round"/><rect clip-path="url(#f)" transform="scale(-1 1)" ry="1.68" rx="1.68" y="88.54" x="-121.4" height="40.93" width="40.93" fill="#fff"/><path clip-path="url(#g)" d="m 123.90894,31.04646 c 3.10145,0 5.59767,2.49621 5.59766,5.597656 l -3e-4,108.869424 c 0,3.10145 -2.49621,5.59766 -5.59765,5.59766 H 77.965289 c -3.10144,0 -5.59767,-2.49621 -5.59766,-5.59766 l 3e-4,-108.869424 c 1e-5,-3.101446 2.49622,-5.597656 5.59766,-5.597656 z" fill="#383838" stroke="#1f1f1f" stroke-width="2" stroke-linecap="round" stroke-linejoin="bevel"/><rect clip-path="url(#h)" transform="scale(-1 1)" ry="2.27" rx="2.27" y="38.9" x="-121.4" height="40.93" width="40.93" fill="#4d4d4d"/><rect clip-path="url(#i)" transform="scale(-1 1)" ry="1.68" rx="1.68" y="87.96" x="-120.96" height="40.93" width="40.93" fill="#fff"/><path clip-path="url(#j)" d="m 83.32352,91.154657 v 1.39843 1.39649 1.39843 1.39649 1.39844 1.39843 1.396493 h 1.39648 1.39844 1.39844 1.39648 1.39844 1.39648 1.39844 v -1.396493 -1.39843 -1.39844 -1.39649 -1.39843 -1.39649 -1.39843 H 91.70828 90.3118 88.91336 87.51688 86.11844 84.72 Z m 13.97656,0 v 1.39843 1.39649 h 1.39844 v -1.39649 -1.39843 z m 2.79492,0 v 1.39843 h 1.39844 v -1.39843 z m 5.5918,0 v 1.39843 h -1.39844 v 1.39649 h 1.39844 1.39844 v -1.39649 -1.39843 z m -1.39844,2.79492 h -1.39648 v 1.39843 h -1.39844 v -1.39843 H 100.095 v 1.39843 1.39649 h 1.39844 v 1.39844 h 1.39844 v -1.39844 h 1.39648 v -1.39649 z m -2.79492,4.19336 H 100.095 98.69852 v 1.39843 h 1.39648 v 1.396493 h 1.39844 v -1.396493 z m -1.39844,2.794923 h -1.39648 v -1.396493 h -1.39844 v 1.396493 h -1.39844 v 1.39844 h -1.39648 -1.39844 -1.39844 v 1.39843 h 1.39844 v 1.39649 h 1.39844 v -1.39649 h 1.39648 1.39844 v -1.39843 h 1.39844 v 1.39843 h 1.39648 v -1.39843 z m 0,2.79687 v 1.39649 h 1.39844 v -1.39649 z m 1.39844,0 h 1.39844 1.39648 v -1.39843 -1.39844 -1.396493 h -1.39648 v 1.396493 1.39844 h -1.39844 z m 2.79492,-4.193363 h 1.39844 v -1.39843 h -1.39844 z m 1.39844,-1.39843 h 1.39844 v -1.39844 h -1.39844 z m 0,1.39843 v 1.396493 1.39844 h 1.39844 v -1.39844 -1.396493 z m 1.39844,2.794933 v 1.39843 h 1.39648 v -1.39843 z m -8.38672,1.39843 h -1.39844 v 1.39649 1.39844 h 1.39844 v -1.39844 z m -4.19336,1.39649 v 1.39844 h -1.39844 v 1.39843 h 1.39844 v 1.39649 1.39843 h 1.39648 v -1.39843 h 1.39844 1.39844 v -1.39649 h -1.39844 -1.39844 v -1.39843 -1.39844 z m 1.39648,5.59179 v 1.39844 1.39649 1.39843 h 1.39844 v -1.39843 h 1.39844 v 1.39843 h 1.39648 v 1.39844 h 1.39844 v 1.39649 h 1.39844 1.39648 v -1.39649 h -1.39648 v -1.39844 h 1.39648 1.39844 v 1.39844 1.39649 1.39843 h -1.39844 v 1.39649 h 1.39844 1.39844 v 1.39844 h 1.39648 v 1.39843 1.39649 1.39843 h 1.39844 v -1.39843 h 1.39648 v -1.39649 -1.39843 h -1.39648 v -1.39844 h 1.39648 v 1.39844 h 1.39844 1.39844 v 1.39843 H 115.47 v -1.39843 h 1.39844 v 1.39843 1.39649 h -1.39844 -1.39648 -1.39844 v 1.39843 h 1.39844 1.39648 1.39844 1.39844 v -1.39843 -1.39649 -1.39843 -1.39844 H 116.86844 115.47 v -1.39649 h -1.39648 -1.39844 v -1.39843 h 1.39844 1.39648 v 1.39843 h 1.39844 1.39844 v -1.39843 -1.39649 h -1.39844 v -1.39844 H 115.47 v -1.39843 h -1.39648 v 1.39843 h -1.39844 v -1.39843 h 1.39844 v -1.39649 -1.39844 -1.39843 h -1.39844 v 1.39843 1.39844 h -1.39844 v 1.39649 h -1.39648 -1.39844 -1.39648 v -1.39649 h 1.39648 v -1.39844 h -1.39648 v -1.39843 h -1.39844 v 1.39843 h -1.39844 v 1.39844 h -1.39648 v 1.39649 h -1.39844 -1.39844 v -1.39649 h 1.39844 v -1.39844 H 100.095 98.69852 v 1.39844 h -1.39844 v -1.39844 z m 9.78516,-1.39843 v -1.39649 h -1.39844 -1.39648 -1.39844 v -1.39843 H 100.095 v 1.39843 1.39649 h 1.39844 1.39844 1.39648 z m 1.39844,0 h 1.39648 1.39844 v -1.39649 h 1.39648 v -1.39843 h -1.39648 v -1.39844 h -1.39844 v 1.39844 h -1.39648 v 1.39843 z m 0,-2.79492 v -1.39844 h -1.39844 -1.39844 -1.39648 v 1.39844 h 1.39648 1.39844 z m 2.79492,-1.39844 h 1.39648 v -1.39649 -1.39843 h -1.39648 v 1.39843 z m 1.39648,2.79687 v 1.39649 h 1.39844 v -1.39649 z m 0,1.39649 h -1.39648 v 1.39843 1.39844 h 1.39648 v -1.39844 z m 2.79688,0 h 1.39648 1.39844 v -1.39649 h 1.39844 v -1.39843 -1.39844 h -1.39844 v -1.39649 -1.39843 H 115.47 v 1.39843 1.39649 1.39844 1.39843 h -1.39648 z m -6.98828,12.58008 h -1.39844 v 1.39843 h -1.39844 v 1.39649 h 1.39844 1.39844 v -1.39649 z m -2.79688,2.79492 h -1.39648 -1.39844 v -1.39649 H 100.095 v 1.39649 h -1.39648 v 1.39843 h 1.39648 1.39844 1.39844 1.39648 z m -5.58984,0 v -1.39649 -1.39843 h -1.39844 -1.39844 v -1.39844 h 1.39844 1.39844 v 1.39844 h 1.39648 v -1.39844 h 1.39844 v 1.39844 1.39843 h 1.39844 1.39648 v -1.39843 h -1.39648 v -1.39844 -1.39649 h -1.39844 -1.39844 -1.39648 -1.39844 v -1.39843 h -1.39844 v 1.39843 h -1.39648 v 1.39649 1.39844 1.39843 1.39649 1.39843 h 1.39648 v -1.39843 h 1.39844 z m -2.79688,-6.98828 v -1.39649 -1.39844 h -1.39648 v 1.39844 1.39649 z m -1.39648,-6.98829 h -1.39844 -1.39844 v 1.39844 h 1.39844 1.39844 z m -2.79688,1.39844 H 90.3118 v 1.39649 1.39843 h 1.39648 1.39844 v -1.39843 h -1.39844 z m 1.39844,-4.19336 H 91.70828 90.3118 v -1.39843 h -1.39844 -1.39648 v 1.39843 h 1.39648 v 1.39649 1.39843 h 1.39844 v -1.39843 h 1.39648 1.39844 z m -4.19336,2.79492 h -1.39648 v 1.39844 h 1.39648 z m -1.39648,1.39844 h -1.39844 v -1.39844 H 84.72 v 1.39844 1.39649 1.39843 h 1.39844 1.39844 1.39648 v -1.39843 h -1.39648 z m 0,-5.59179 v -1.39844 -1.39649 h 1.39648 v 1.39649 h 1.39844 v -1.39649 -1.39843 H 88.91336 87.51688 86.11844 84.72 83.32352 v 1.39843 H 84.72 v 1.39649 h 1.39844 v 1.39844 z m -1.39844,0 H 84.72 v 1.39843 h 1.39844 z M 84.72,107.92809 h -1.39648 v 1.39649 H 84.72 Z m 8.38672,-1.39843 v -1.39844 h -1.39844 v 1.39844 z m 2.79492,-5.5918 v -1.396493 h 1.39844 v -1.39843 -1.39844 h 1.39844 v -1.39649 h -1.39844 -1.39844 -1.39648 v 1.39649 h 1.39648 v 1.39844 h -1.39648 v 1.39843 1.396493 z m 12.58008,-9.783203 v 1.39843 1.39649 1.39843 1.39649 1.39844 1.39843 1.396493 h 1.39844 1.39648 1.39844 1.39844 1.39648 1.39844 1.39844 v -1.396493 -1.39843 -1.39844 -1.39649 -1.39843 -1.39649 -1.39843 h -1.39844 -1.39844 -1.39648 -1.39844 -1.39844 -1.39648 z M 84.72,92.553087 h 1.39844 1.39844 1.39648 1.39844 1.39648 v 1.39649 1.39843 1.39649 1.39844 1.39843 H 90.3118 88.91336 87.51688 86.11844 84.72 v -1.39843 -1.39844 -1.39649 -1.39843 z m 9.78516,0 v 1.39649 h 1.39648 v -1.39649 z m 15.375,0 h 1.39648 1.39844 1.39844 1.39648 1.39844 v 1.39649 1.39843 1.39649 1.39844 1.39843 h -1.39844 -1.39648 -1.39844 -1.39844 -1.39648 v -1.39843 -1.39844 -1.39649 -1.39843 z m -23.76172,1.39649 v 1.39843 1.39649 1.39844 h 1.39844 1.39648 1.39844 v -1.39844 -1.39649 -1.39843 h -1.39844 -1.39648 z m 25.1582,0 v 1.39843 1.39649 1.39844 h 1.39844 1.39844 1.39648 v -1.39844 -1.39649 -1.39843 h -1.39648 -1.39844 z m 1.39844,8.386723 v 1.39843 1.39649 1.39844 h 1.39844 v -1.39844 -1.39649 -1.39843 z m 2.79492,8.38671 v 1.39844 h 1.39844 v 1.39649 h 1.39844 v -1.39649 -1.39844 h -1.39844 z m -8.38476,4.19336 h 1.39648 1.39844 1.39648 v 1.39844 1.39649 1.39843 h -1.39648 -1.39844 -1.39648 v -1.39843 -1.39649 z m -23.76172,1.39844 v 1.39649 1.39843 1.39649 1.39844 1.39843 1.39649 1.39843 h 1.39648 1.39844 1.39844 1.39648 1.39844 1.39648 1.39844 v -1.39843 -1.39649 -1.39843 -1.39844 -1.39649 -1.39843 -1.39649 H 91.70828 90.3118 88.91336 87.51688 86.11844 84.72 Z m 25.1582,0 v 1.39649 h 1.39844 v -1.39649 z M 84.72,117.7113 h 1.39844 1.39844 1.39648 1.39844 1.39648 v 1.39843 1.39649 1.39844 1.39843 1.39649 H 90.3118 88.91336 87.51688 86.11844 84.72 v -1.39649 -1.39843 -1.39844 -1.39649 z m 1.39844,1.39843 v 1.39649 1.39844 1.39843 h 1.39844 1.39648 1.39844 v -1.39843 -1.39844 -1.39649 h -1.39844 -1.39648 z"/><path clip-path="url(#k)" d="m 113.95165,36.03587 h 4.99804 c 2.94414,0 5.31446,2.370307 5.31446,5.314453 v 4.998047 m -46.652351,0 v -4.998047 c 0,-2.944146 2.3703,-5.314453 5.31445,-5.314453 h 4.99805 m 36.339851,36.339839 v 5 c 0,2.94415 -2.37032,5.3125 -5.31446,5.3125 h -4.99804 m -26.027351,0 h -4.99805 c -2.94415,0 -5.31445,-2.36835 -5.31445,-5.3125 v -5" fill="none" stroke="#c83737" stroke-width="2" stroke-linecap="round" stroke-linejoin="bevel"/><rect clip-path="url(#l)" transform="scale(-1 1)" ry="1.75" rx="1.75" y="134.47" x="-121.4" height="9" width="40.93" fill="#4bac4f"/><path clip-path="url(#m)" d="m 103.40133,111.932 c -3.23467,0 -6.469601,0 -9.704801,0" fill="none" stroke="#fff" stroke-width="1.94" stroke-linecap="round" stroke-linejoin="round"/><rect clip-path="url(#n)" ry="6.02" rx="6.02" y="108.35" x="66.98" height="12.06" width="12.04" fill="#ac8049"/><rect clip-path="url(#o)" ry="6.02" rx="6.02" y="120" x="66.98" height="12.06" width="12.04" fill="#ac8049"/><rect clip-path="url(#p)" ry="6.02" rx="6.02" y="117.64" x="66.98" height="12.06" width="12.04" fill="#ac8049"/><path clip-path="url(#q)" d="m 125.28448,84.810875 c 3.03529,19.500505 2.07482,16.721145 5.50062,31.497115" fill="none" stroke="#cb9553" stroke-width="14.65" stroke-linecap="round"/><path clip-path="url(#r)" d="m 124.91043,112.74002 c 1.68493,8.1636 1.89614,11.55467 5.76442,15.98413 3.86829,4.42945 12.51803,14.02276 13.36531,14.08325 0.84728,0.0605 -2.10794,-3.41183 -3.85787,-7.65971 -2.24136,-7.67773 -2.91666,-13.7801 -5.47493,-23.44261" fill="#cb9553" stroke="#cb9553" stroke-width="4.85" stroke-linecap="round" stroke-linejoin="round"/><path clip-path="url(#s)" d="m 21.757029,257.49676 c 9.47916,-16.33908 18.95836,-32.67823 24.07385,-41.32795 5.11549,-8.64972 6.54227,-10.47231 8.19483,-11.78189 1.65256,-1.30958 3.86843,-2.53729 7.06569,-7.04902 3.19726,-4.51173 7.37547,-12.30691 5.59854,-17.7066 -1.77692,-5.39968 -9.00299,-8.20717 -8.75407,-16.0074 0.24892,-7.80023 7.9114,-18.67777 9.31383,-24.3484 1.40242,-5.67063 -4.05764,-5.36948 -6.77094,-5.0017 -2.71329,0.36778 -2.71329,0.80435 -3.63284,0.52346 -0.91954,-0.28089 -2.7561,-1.2781 -4.3919,-3.42941 -1.63579,-2.15131 -3.07038,-5.45711 -2.15163,-9.04264 0.91876,-3.58553 4.19107,-7.45238 7.46308,-11.31888 -2.86674,-0.60203 -5.73379,-1.20413 -8.91536,0.28497 -3.18157,1.4891 -6.67903,5.07004 -9.44876,9.83888 -2.76973,4.76885 -5.31773,12.2008 -6.20817,18.81 -0.89045,6.6092 -0.39024,12.95312 -1.62562,20.68294 -1.23537,7.72981 -4.20266,16.72253 -9.26663,25.72307 -5.06396,9.00054 -12.15271,17.88087 -21.44860962,29.70485 -9.29589998,11.82398 -20.77367038,26.55993 -32.25143038,41.29585 0,0 53.15614,0.14987 53.15614,0.14987 z" fill="#ac8049"/><path clip-path="url(#t)" d="m 73.019309,99.968097 c -7.35897,2.120393 -14.7178,4.240733 -19.08309,6.236273 -4.36528,1.99554 -5.7373,3.86648 -9.64929,7.95357 -6.42498,7.99712 -11.1142,19.61106 -12.49858,25.86782 -1.55512,7.03652 1.27463,20.39624 0.79778,30.08151 -0.47685,9.68527 -1.72408,15.79669 -10.76699,29.70406 -9.04291,13.90737 -25.8803296,35.60893 -42.71834,57.31125" fill="none" stroke="#ac8049" stroke-width="12.5" stroke-linecap="round" stroke-linejoin="bevel"/><path clip-path="url(#u)" d="m 78.046389,110.81602 c -6.76033,4.87871 -14.91524,7.20169 -20.5595,10.74072 -5.64426,3.53903 -8.77768,8.29403 -11.6218,10.56084 -2.84413,2.26682 -4.00424,4.60108 -5.92409,7.88416 -1.91985,3.28309 -4.599,7.51425 -5.82321,13.28623 -1.2242,5.77198 -0.99275,13.0819 -1.50063,19.79323 -0.50788,6.71134 -1.75505,12.82242 -2.64648,16.22357 -0.89144,3.40114 -1.42694,4.09133 -9.84616,14.94277 -8.41922,10.85144 -24.7211896,31.86288 -41.02372,52.87504" fill="none" stroke="#ac8049" stroke-width="13.7" stroke-linecap="round" stroke-linejoin="bevel"/><path clip-path="url(#v)" d="m 13.217559,261.48438 c 9.56914,-16.75702 19.13824,-33.51397 28.70729,-50.27083 m 4.89479,-6.35 c 3.35139,-3.70417 6.70279,-7.40834 11.42115,-10.31874 4.71836,-2.9104 10.8037,-5.02704 16.88927,-7.14376" fill="none" stroke="#7e5b2f" stroke-width="5" stroke-linecap="round"/><path clip-path="url(#w)" d="m 67.615649,100.63808 c -5.55381,1.8592 -10.97346,3.67349 -14.81736,5.65474 -3.8439,1.98125 -5.25466,4.49895 -7.14786,6.4776 m -4.39882,5.64521 c -3.00831,4.50369 -4.23368,6.17688 -5.66834,9.6072 -1.48036,3.53959 -2.02817,6.69341 -2.95016,11.12556 m -0.94167,8.99583 c 0.56427,6.96802 1.12849,13.93549 0.61716,20.10431 -0.51133,6.16881 -2.09817,11.53743 -3.68524,16.90684 m -4.23723,9.02404 c -4.09088,5.49705 -8.18167,10.99399 -16.4693996,22.02534 -8.28773002,11.03135 -20.7719204,27.59648 -33.2563104,44.16188" fill="none" stroke="#cb9553" stroke-width="5" stroke-linecap="round"/><path clip-path="url(#x)" d="m 78.559229,125.76564 c 3.33306,0 6.66639,0 10,0" fill="none" stroke="#fff" stroke-width="2" stroke-linecap="round" stroke-linejoin="round"/><rect clip-path="url(#y)" transform="scale(-1 1)" ry="6.2" rx="6.2" y="122.08" x="-116.09" height="12.43" width="12.4" fill="#ac8049"/><rect clip-path="url(#z)" transform="scale(-1 1)" ry="6.2" rx="6.2" y="134.08" x="-116.09" height="12.43" width="12.4" fill="#ac8049"/><rect clip-path="url(#A)" transform="scale(-1 1)" ry="6.2" rx="6.2" y="146.08" x="-116.09" height="12.43" width="12.4" fill="#ac8049"/><path clip-path="url(#B)" d="M 104.93839,76.070859 H 58.995579 c -3.10144,0 -5.59827,2.496832 -5.59827,5.598278 V 189.45692 c 0,3.10145 2.49683,5.59828 5.59827,5.59828 h 45.942811 c 3.10145,0 5.59828,-2.49683 5.59828,-5.59828 V 81.669137 c 0,-3.101446 -2.49683,-5.598278 -5.59828,-5.598278 z" fill="#eee" stroke="#1f1f1f" stroke-width="2" stroke-linecap="round" stroke-linejoin="bevel"/><rect clip-path="url(#C)" transform="scale(-1 1)" ry="1.68" rx="1.68" y="84.48" x="-102.43" height="40.93" width="40.93" fill="#fff"/><path clip-path="url(#D)" d="m 64.494579,87.476437 v 1.39843 1.39649 1.39843 1.39649 1.39844 1.39843 1.39649 h 1.39648 1.39844 1.39844 1.39648 1.39844 1.39648 1.39844 v -1.39649 -1.39843 -1.39844 -1.39649 -1.39843 -1.39649 -1.39843 h -1.39844 -1.39648 -1.39844 -1.39648 -1.39844 -1.39844 z m 13.97656,0 v 1.39843 1.39649 h 1.39844 v -1.39649 -1.39843 z m 2.79492,0 v 1.39843 h 1.39844 v -1.39843 z m 5.5918,0 v 1.39843 h -1.39844 v 1.39649 h 1.39844 1.39844 v -1.39649 -1.39843 z m -1.39844,2.79492 h -1.39648 v 1.39843 h -1.39844 v -1.39843 h -1.39844 v 1.39843 1.39649 h 1.39844 v 1.39844 h 1.39844 v -1.39844 h 1.39648 v -1.39649 z m -2.79492,4.19336 h -1.39844 -1.39648 v 1.39843 h 1.39648 v 1.39649 h 1.39844 v -1.39649 z m -1.39844,2.79492 h -1.39648 v -1.39649 h -1.39844 v 1.39649 h -1.39844 v 1.39844 h -1.39648 -1.39844 -1.39844 v 1.398433 h 1.39844 v 1.39649 h 1.39844 v -1.39649 h 1.39648 1.39844 v -1.398433 h 1.39844 v 1.398433 h 1.39648 v -1.398433 z m 0,2.796873 v 1.39649 h 1.39844 v -1.39649 z m 1.39844,0 h 1.39844 1.39648 v -1.398433 -1.39844 -1.39649 h -1.39648 v 1.39649 1.39844 h -1.39844 z m 2.79492,-4.193363 h 1.39844 v -1.39843 h -1.39844 z m 1.39844,-1.39843 h 1.39844 v -1.39844 h -1.39844 z m 0,1.39843 v 1.39649 1.39844 h 1.39844 v -1.39844 -1.39649 z m 1.39844,2.79493 v 1.398433 h 1.39648 v -1.398433 z m -8.38672,1.398433 h -1.39844 v 1.39649 1.39844 h 1.39844 V 101.453 Z m -4.19336,1.39649 v 1.39844 h -1.39844 v 1.39843 h 1.39844 v 1.39649 1.39843 h 1.39648 v -1.39843 h 1.39844 1.39844 v -1.39649 h -1.39844 -1.39844 v -1.39843 -1.39844 z m 1.39648,5.59179 v 1.39844 1.39649 1.39843 h 1.39844 v -1.39843 h 1.39844 v 1.39843 h 1.39648 v 1.39844 h 1.39844 v 1.39649 h 1.39844 1.39648 v -1.39649 h -1.39648 v -1.39844 h 1.39648 1.39844 v 1.39844 1.39649 1.39843 h -1.39844 v 1.39649 h 1.39844 1.39844 v 1.39844 h 1.39648 v 1.39843 1.39649 1.39843 h 1.39844 v -1.39843 h 1.39648 v -1.39649 -1.39843 h -1.39648 V 116.828 h 1.39648 v 1.39844 h 1.39844 1.39844 v 1.39843 h 1.39648 v -1.39843 h 1.39844 v 1.39843 1.39649 h -1.39844 -1.39648 -1.39844 v 1.39843 h 1.39844 1.39648 1.39844 1.39844 v -1.39843 -1.39649 -1.39843 -1.39844 h -1.39844 -1.39844 v -1.39649 h -1.39648 -1.39844 v -1.39843 h 1.39844 1.39648 v 1.39843 h 1.39844 1.39844 v -1.39843 -1.39649 h -1.39844 v -1.39844 h -1.39844 v -1.39843 h -1.39648 v 1.39843 h -1.39844 v -1.39843 h 1.39844 v -1.39649 -1.39844 -1.39843 h -1.39844 v 1.39843 1.39844 h -1.39844 v 1.39649 h -1.39648 -1.39844 -1.39648 v -1.39649 h 1.39648 v -1.39844 h -1.39648 v -1.39843 h -1.39844 v 1.39843 h -1.39844 v 1.39844 h -1.39648 v 1.39649 h -1.39844 -1.39844 v -1.39649 h 1.39844 v -1.39844 h -1.39844 -1.39648 v 1.39844 h -1.39844 v -1.39844 z m 9.78516,-1.39843 v -1.39649 h -1.39844 -1.39648 -1.39844 v -1.39843 h -1.39844 v 1.39843 1.39649 h 1.39844 1.39844 1.39648 z m 1.39844,0 h 1.39648 1.39844 v -1.39649 h 1.39648 v -1.39843 h -1.39648 V 101.453 h -1.39844 v 1.39844 h -1.39648 v 1.39843 z m 0,-2.79492 V 101.453 h -1.39844 -1.39844 -1.39648 v 1.39844 h 1.39648 1.39844 z m 2.79492,-1.39844 h 1.39648 v -1.39649 -1.398433 h -1.39648 v 1.398433 z m 1.39648,2.79687 v 1.39649 h 1.39844 v -1.39649 z m 0,1.39649 h -1.39648 v 1.39843 1.39844 h 1.39648 v -1.39844 z m 2.79688,0 h 1.39648 1.39844 v -1.39649 h 1.39844 v -1.39843 -1.39844 h -1.39844 v -1.39649 -1.398433 h -1.39844 v 1.398433 1.39649 1.39844 1.39843 h -1.39648 z m -6.98828,12.58008 h -1.39844 v 1.39843 h -1.39844 v 1.39649 h 1.39844 1.39844 v -1.39649 z m -2.79688,2.79492 h -1.39648 -1.39844 v -1.39649 h -1.39844 v 1.39649 h -1.39648 v 1.39843 h 1.39648 1.39844 1.39844 1.39648 z m -5.58984,0 v -1.39649 -1.39843 h -1.39844 -1.39844 V 116.828 h 1.39844 1.39844 v 1.39844 h 1.39648 V 116.828 h 1.39844 v 1.39844 1.39843 h 1.39844 1.39648 v -1.39843 h -1.39648 v -1.39844 -1.39649 h -1.39844 -1.39844 -1.39648 -1.39844 v -1.39843 h -1.39844 v 1.39843 h -1.39648 v 1.39649 1.39844 1.39843 1.39649 1.39843 h 1.39648 v -1.39843 h 1.39844 z m -2.79688,-6.98828 v -1.39649 -1.39844 h -1.39648 v 1.39844 1.39649 z m -1.39648,-6.98829 h -1.39844 -1.39844 v 1.39844 h 1.39844 1.39844 z m -2.79688,1.39844 h -1.39648 v 1.39649 1.39843 h 1.39648 1.39844 v -1.39843 h -1.39844 z m 1.39844,-4.19336 h -1.39844 -1.39648 v -1.39843 h -1.39844 -1.39648 v 1.39843 h 1.39648 v 1.39649 1.39843 h 1.39844 v -1.39843 h 1.39648 1.39844 z m -4.19336,2.79492 h -1.39648 v 1.39844 h 1.39648 z m -1.39648,1.39844 h -1.39844 v -1.39844 h -1.39844 v 1.39844 1.39649 1.39843 h 1.39844 1.39844 1.39648 v -1.39843 h -1.39648 z m 0,-5.59179 v -1.39844 -1.39649 h 1.39648 v 1.39649 h 1.39844 v -1.39649 -1.398433 h -1.39844 -1.39648 -1.39844 -1.39844 -1.39648 v 1.398433 h 1.39648 v 1.39649 h 1.39844 v 1.39844 z m -1.39844,0 h -1.39844 v 1.39843 h 1.39844 z m -1.39844,1.39843 h -1.39648 v 1.39649 h 1.39648 z m 8.38672,-1.39843 V 101.453 h -1.39844 v 1.39844 z m 2.79492,-5.591803 v -1.39649 h 1.39844 v -1.39843 -1.39844 h 1.39844 v -1.39649 h -1.39844 -1.39844 -1.39648 v 1.39649 h 1.39648 v 1.39844 h -1.39648 v 1.39843 1.39649 z m 12.58008,-9.7832 v 1.39843 1.39649 1.39843 1.39649 1.39844 1.39843 1.39649 h 1.39844 1.39648 1.39844 1.39844 1.39648 1.39844 1.39844 v -1.39649 -1.39843 -1.39844 -1.39649 -1.39843 -1.39649 -1.39843 h -1.39844 -1.39844 -1.39648 -1.39844 -1.39844 -1.39648 z m -23.76172,1.39843 h 1.39844 1.39844 1.39648 1.39844 1.39648 v 1.39649 1.39843 1.39649 1.39844 1.39843 h -1.39648 -1.39844 -1.39648 -1.39844 -1.39844 v -1.39843 -1.39844 -1.39649 -1.39843 z m 9.78516,0 v 1.39649 h 1.39648 v -1.39649 z m 15.375,0 h 1.39648 1.39844 1.39844 1.39648 1.39844 v 1.39649 1.39843 1.39649 1.39844 1.39843 h -1.39844 -1.39648 -1.39844 -1.39844 -1.39648 v -1.39843 -1.39844 -1.39649 -1.39843 z m -23.76172,1.39649 v 1.39843 1.39649 1.39844 h 1.39844 1.39648 1.39844 v -1.39844 -1.39649 -1.39843 h -1.39844 -1.39648 z m 25.1582,0 v 1.39843 1.39649 1.39844 h 1.39844 1.39844 1.39648 v -1.39844 -1.39649 -1.39843 h -1.39648 -1.39844 z m 1.39844,8.38672 v 1.398433 1.39649 1.39844 h 1.39844 v -1.39844 -1.39649 -1.398433 z m 2.79492,8.386713 v 1.39844 h 1.39844 v 1.39649 h 1.39844 v -1.39649 -1.39844 h -1.39844 z m -8.38476,4.19336 h 1.39648 1.39844 1.39648 v 1.39844 1.39649 1.39843 h -1.39648 -1.39844 -1.39648 v -1.39843 -1.39649 z m -23.76172,1.39844 v 1.39649 1.39843 1.39649 1.39844 1.39843 1.39649 1.39843 h 1.39648 1.39844 1.39844 1.39648 1.39844 1.39648 1.39844 v -1.39843 -1.39649 -1.39843 -1.39844 -1.39649 -1.39843 -1.39649 h -1.39844 -1.39648 -1.39844 -1.39648 -1.39844 -1.39844 z m 25.1582,0 v 1.39649 h 1.39844 v -1.39649 z m -23.76172,1.39649 h 1.39844 1.39844 1.39648 1.39844 1.39648 v 1.39843 1.39649 1.39844 1.39843 1.39649 h -1.39648 -1.39844 -1.39648 -1.39844 -1.39844 v -1.39649 -1.39843 -1.39844 -1.39649 z m 1.39844,1.39843 v 1.39649 1.39844 1.39843 h 1.39844 1.39648 1.39844 v -1.39843 -1.39844 -1.39649 h -1.39844 -1.39648 z"/><path clip-path="url(#E)" d="m 94.981099,81.621104 h 4.99804 c 2.944141,0 5.314461,2.370307 5.314461,5.314453 v 4.99805 m -46.652351,0 v -4.99805 c 0,-2.944146 2.3703,-5.314453 5.31445,-5.314453 h 4.99805 M 105.2936,117.96095 v 5 c 0,2.94415 -2.37032,5.3125 -5.314461,5.3125 h -4.99804 m -26.02735,0 h -4.99805 c -2.94415,0 -5.31445,-2.36835 -5.31445,-5.3125 v -5" fill="none" stroke="#c83737" stroke-width="2" stroke-linecap="round" stroke-linejoin="bevel"/><path clip-path="url(#F)" d="M 102.79281,90.455907 H 61.483529 v 5.16366 h 41.309281 z m 0,8 H 61.483529 v 2.353403 h 41.309281 z" opacity=".4" fill="#eee"/><rect clip-path="url(#G)" transform="scale(-1 1)" ry="1.75" rx="1.75" y="178.41" x="-102.43" height="9" width="40.93" fill="#4bac4f"/><path clip-path="url(#H)" d="m 125.09047,83.46442 c 0.36908,1.89132 0.73817,3.78262 1.10725,5.67394" fill="#f2f2f2" stroke="#e8c5aa" stroke-width="9.88" stroke-linecap="round"/><path clip-path="url(#I)" d="m 127.36159,94.547837 c 0.36909,1.89132 0.73818,3.78262 1.10726,5.673943" fill="#cb9553" stroke="#cb9553" stroke-width="9.88" stroke-linecap="round"/><path clip-path="url(#J)" d="m 128.93788,107.32057 1.9822,-0.60328" fill="none" stroke="#ac8049" stroke-width="4.85" stroke-linecap="round"/><rect clip-path="url(#K)" transform="scale(-1 1)" ry="1.68" rx="1.68" y="132.48" x="-102.43" height="40.93" width="40.93" opacity=".19" fill="#fff"/><path clip-path="url(#L)" d="m 57.067329,128.07176 c -3.03529,19.50051 -2.07482,16.72115 -5.50062,31.49712" fill="none" stroke="#cb9553" stroke-width="14.65" stroke-linecap="round"/><path clip-path="url(#M)" d="m 57.441379,156.00091 c -1.68493,8.1636 -1.89614,11.55467 -5.76442,15.98413 -3.86829,4.42945 -12.51803,14.02276 -13.36531,14.08325 -0.84728,0.0605 2.10794,-3.41183 3.85787,-7.65971 2.24136,-7.67773 2.91666,-13.7801 5.47493,-23.44261" fill="#cb9553" stroke="#cb9553" stroke-width="4.85" stroke-linecap="round" stroke-linejoin="round"/><path clip-path="url(#N)" d="m 57.261339,126.72531 c -0.36908,1.89132 -0.73817,3.78262 -1.10725,5.67394" fill="#f2f2f2" stroke="#e8c5aa" stroke-width="9.88" stroke-linecap="round"/><path clip-path="url(#O)" d="m 54.990219,137.80872 c -0.36909,1.89133 -0.73818,3.78263 -1.10726,5.67395" fill="#cb9553" stroke="#cb9553" stroke-width="9.88" stroke-linecap="round"/><path clip-path="url(#P)" d="m 53.413939,150.58146 -1.98221,-0.60328" fill="none" stroke="#ac8049" stroke-width="4.85" stroke-linecap="round"/><path clip-path="url(#Q)" d="m 64.494581,135.47546 v 1.66406 1.66406 1.66407 1.66406 1.66406 1.66407 1.66406 h 1.66406 1.66211 1.66406 1.66406 1.66407 1.66406 1.66406 v -1.66406 -1.66407 -1.66406 -1.66406 -1.66407 -1.66406 -1.66406 h -1.66406 -1.66406 -1.66407 -1.66406 -1.66406 -1.66211 z m 13.31054,0 v 1.66406 h 1.66407 v 1.66406 h -1.66407 v 1.66407 1.66406 1.66406 h 1.66407 v 1.66407 h 1.664057 v 1.66406 h 1.66406 v -1.66406 -1.66407 h 1.66406 1.66407 v -1.66406 h -1.66407 v -1.66406 h -1.66406 v -1.66407 h -1.66406 v -1.66406 h 1.66406 v -1.66406 h -1.66406 -1.664057 z m 6.656247,4.99219 h 1.66407 v -1.66407 h -1.66407 z m -1.66406,6.65625 v 1.66406 h -1.66406 v 1.66406 h 1.66406 1.66406 1.66407 v 1.66407 1.66406 h 1.66406 v -1.66406 h 1.66406 1.66406 1.66407 v 1.66406 1.66406 h -1.66407 v 1.66406 1.66407 1.66406 h -1.66406 v 1.66406 h 1.66406 v 1.66406 h 1.66407 v -1.66406 h 1.66406 v 1.66406 h 1.66406 v -1.66406 h 1.66406 v -1.66406 h -1.66406 -1.66406 -1.66406 v -1.66406 -1.66407 h 1.66406 v -1.66406 -1.66406 -1.66406 h 1.66406 v 1.66406 1.66406 h 1.66406 v -1.66406 h 1.66407 v -1.66406 -1.66407 -1.66406 h -1.66407 v 1.66406 h -1.66406 v -1.66406 h -1.66406 -1.66406 -1.66407 v 1.66406 h -1.66406 -1.66406 v -1.66406 h -1.66406 v -1.66406 -1.66406 h -1.66407 v 1.66406 z m 14.97656,8.32031 v 1.66406 h 1.66407 v -1.66406 z m 0,6.65625 v 1.66406 h 1.66407 v -1.66406 z m -6.65625,1.66406 h -1.66406 v 1.66407 1.66406 h -1.66406 v -1.66406 -1.66407 h -1.66406 -1.66407 v 1.66407 h -1.66406 v 1.66406 h 1.66406 1.66407 v 1.66406 h -1.66407 v 1.66406 h 1.66407 1.66406 1.66406 v -1.66406 h 1.66406 v 1.66406 h 1.66407 1.66406 1.66406 v -1.66406 h -1.66406 -1.66406 v -1.66406 h -1.66407 v -1.66406 z m -8.32031,1.66407 v -1.66407 -1.66406 -1.66406 h 1.66406 v -1.66406 h 1.66407 v -1.66407 -1.66406 h -1.66407 v 1.66406 h -1.66406 v 1.66407 h -1.66406 v 1.66406 1.66406 1.66406 1.66407 z m -1.66406,0 h -1.664057 v -1.66407 h -1.66407 v 1.66407 1.66406 1.66406 1.66406 h 1.66407 1.664057 v -1.66406 h -1.664057 v -1.66406 h 1.664057 z m 1.66406,-8.32032 v -1.66406 h 1.66406 v -1.66406 h -1.66406 v -1.66406 h -1.66406 -1.664057 v -1.66407 -1.66406 h -1.66407 v 1.66406 1.66407 h -1.66406 -1.66406 -1.664061 v -1.66407 h -1.664069 v -1.66406 H 69.48481 67.82075 66.15864 64.49458 v 1.66406 1.66407 1.66406 h 1.66406 1.66211 v -1.66406 h -1.66211 v -1.66407 h 1.66211 1.66406 v 1.66407 h 1.664061 v 1.66406 h 1.664069 1.664061 1.66406 v 1.66406 h 1.66406 1.66407 v 1.66406 h 1.664057 z m -3.328117,0 h -1.66407 v 1.66407 h 1.66407 z m -3.32813,-1.66406 h -1.66406 -1.664061 v 1.66406 h 1.664061 1.66406 z m -8.32031,-1.66406 v 1.66406 1.66406 h 1.66406 1.66406 v -1.66406 h -1.66406 v -1.66406 z m 16.640616,6.65625 v 1.66406 h 1.66407 1.66406 v -1.66406 h -1.66406 z m 3.32813,0 h 1.664061 v -1.66406 h -1.664061 z m 3.32812,-4.99219 v -1.66406 h -1.66406 v 1.66406 z m -1.66406,0 h -1.66406 v 1.66406 h 1.66406 z m -9.984367,-9.98437 h -1.66407 v 1.66406 h 1.66407 z m 8.320307,-9.98438 v 1.66406 1.66406 1.66407 1.66406 1.66406 1.66407 1.66406 h 1.66406 1.66406 1.66407 1.66406 1.664061 1.66406 1.66407 v -1.66406 -1.66407 -1.66406 -1.66406 -1.66407 -1.66406 -1.66406 h -1.66407 -1.66406 -1.664061 -1.66406 -1.66407 -1.66406 z m -21.630857,1.66406 h 1.66211 1.66406 1.664061 1.664069 1.664061 v 1.66406 1.66407 1.66406 1.66406 1.66407 H 72.81294 71.148871 69.48481 67.82075 66.15864 v -1.66407 -1.66406 -1.66406 -1.66407 z m 23.294917,0 h 1.66406 1.66407 1.66406 1.664061 1.66406 v 1.66406 1.66407 1.66406 1.66406 1.66407 h -1.66406 -1.664061 -1.66406 -1.66407 -1.66406 v -1.66407 -1.66406 -1.66406 -1.66407 z m -21.632807,1.66406 v 1.66407 1.66406 1.66406 h 1.66406 1.664061 1.664069 v -1.66406 -1.66406 -1.66407 H 71.148871 69.48481 Z m 23.296867,0 v 1.66407 1.66406 1.66406 h 1.66407 1.66406 1.664061 v -1.66406 -1.66406 -1.66407 h -1.664061 -1.66406 z m -16.640616,9.98438 v 1.66406 h 1.66406 v -1.66406 z m -9.982421,9.98438 v 1.66406 1.66406 1.66406 1.66407 1.66406 1.66406 1.66406 h 1.664061 1.66211 1.66406 1.66406 1.66407 1.66406 1.66406 v -1.66406 -1.66406 -1.66406 -1.66407 -1.66406 -1.66406 -1.66406 h -1.66406 -1.66406 -1.66407 -1.66406 -1.66406 -1.66211 z m 1.664061,1.66406 h 1.66211 1.66406 1.66406 1.66407 1.66406 v 1.66406 1.66406 1.66407 1.66406 1.66406 h -1.66406 -1.66407 -1.66406 -1.66406 -1.66211 v -1.66406 -1.66406 -1.66407 -1.66406 z m 1.66211,1.66406 v 1.66406 1.66407 1.66406 h 1.66406 1.66406 1.66407 v -1.66406 -1.66407 -1.66406 h -1.66407 -1.66406 z m 26.624997,3.32813 v 1.66406 h 1.66406 v -1.66406 z m 3.32812,1.66406 v 1.66406 h 1.66407 v -1.66406 z" opacity=".2"/></svg>
